<?xml version="1.0" encoding="UTF-8"?>
<svg xmlns="http://www.w3.org/2000/svg" version="1.1" xmlns:xlink="http://www.w3.org/1999/xlink" viewBox="0 0 456.7 437.6">
  <!-- Generator: Adobe Illustrator 29.5.1, SVG Export Plug-In . SVG Version: 2.1.0 Build 141)  -->
  <defs>
    <style>
      .st0 {
        fill: #9769b6;
      }

      .st1 {
        filter: url(#drop-shadow-48);
      }

      .st1, .st2, .st3, .st4, .st5, .st6, .st7, .st8, .st9, .st10, .st11, .st12, .st13, .st14, .st15, .st16, .st17, .st18, .st19, .st20, .st21, .st22, .st23, .st24, .st25, .st26, .st27, .st28, .st29, .st30, .st31 {
        stroke-miterlimit: 10;
      }

      .st1, .st2, .st4, .st5, .st9, .st10, .st11, .st12, .st13, .st14, .st15, .st16, .st17, .st18, .st21, .st22, .st23, .st25, .st29, .st30, .st31 {
        stroke-width: 4px;
      }

      .st1, .st2, .st4, .st6, .st7, .st9, .st10, .st11, .st13, .st14, .st15, .st16, .st18, .st19, .st21, .st23, .st32, .st25, .st26, .st28, .st29, .st30, .st31 {
        fill: #fff;
      }

      .st1, .st3, .st5, .st11, .st18, .st19, .st31 {
        stroke: #ffb90b;
      }

      .st33 {
        filter: url(#drop-shadow-15);
      }

      .st33, .st34, .st35, .st36, .st37, .st38, .st39, .st40, .st41, .st42, .st43, .st44, .st45, .st46, .st47, .st48, .st49, .st50, .st51, .st52, .st53, .st54, .st55, .st56, .st57, .st58, .st59, .st60, .st61, .st62, .st63, .st64, .st65, .st66, .st67, .st68 {
        fill: #007793;
      }

      .st2 {
        filter: url(#drop-shadow-10);
      }

      .st2, .st9, .st10, .st12, .st13, .st15, .st26, .st27 {
        stroke: #00a9b9;
      }

      .st3, .st5, .st69, .st12, .st17, .st20, .st22, .st24, .st27 {
        fill: none;
      }

      .st3, .st7, .st19, .st20, .st24, .st26, .st27, .st28 {
        stroke-width: 7.2px;
      }

      .st34 {
        filter: url(#drop-shadow-16);
      }

      .st70, .st71, .st72 {
        font-family: Montserrat-Regular, Montserrat;
      }

      .st73 {
        clip-path: url(#clippath-6);
      }

      .st74 {
        clip-path: url(#clippath-7);
      }

      .st75 {
        clip-path: url(#clippath-17);
      }

      .st35 {
        filter: url(#drop-shadow-8);
      }

      .st36 {
        filter: url(#drop-shadow-33);
      }

      .st76 {
        clip-path: url(#clippath-15);
      }

      .st4 {
        filter: url(#drop-shadow-20);
      }

      .st4, .st14, .st17, .st21, .st24, .st25, .st28 {
        stroke: #9769b6;
      }

      .st6 {
        filter: url(#drop-shadow-57);
        stroke: #007793;
        stroke-width: 2.1px;
      }

      .st77 {
        clip-path: url(#clippath-4);
      }

      .st37 {
        filter: url(#drop-shadow-29);
      }

      .st7 {
        filter: url(#drop-shadow-40);
      }

      .st7, .st8, .st16, .st20, .st22, .st23, .st29, .st30 {
        stroke: #f14258;
      }

      .st71 {
        font-size: 4px;
        letter-spacing: 0em;
      }

      .st8 {
        stroke-width: .9px;
      }

      .st8, .st78 {
        fill: #f14258;
      }

      .st79, .st80, .st81, .st82, .st83 {
        font-size: 4.6px;
      }

      .st79, .st80, .st72 {
        letter-spacing: 0em;
      }

      .st79, .st84, .st81, .st85, .st83 {
        fill: #202b37;
      }

      .st86 {
        opacity: .3;
      }

      .st38 {
        filter: url(#drop-shadow-25);
      }

      .st9 {
        filter: url(#drop-shadow-4);
      }

      .st87 {
        fill: #ffb90b;
      }

      .st88 {
        clip-path: url(#clippath-9);
      }

      .st89 {
        clip-path: url(#clippath-10);
      }

      .st39 {
        filter: url(#drop-shadow-53);
      }

      .st90 {
        filter: url(#drop-shadow-41);
      }

      .st40 {
        filter: url(#drop-shadow-36);
      }

      .st80, .st91, .st84, .st82, .st92, .st83 {
        font-family: Montserrat-Black, Montserrat;
        font-weight: 800;
      }

      .st41 {
        filter: url(#drop-shadow-38);
      }

      .st42 {
        filter: url(#drop-shadow-62);
      }

      .st93 {
        clip-path: url(#clippath-11);
      }

      .st10 {
        filter: url(#drop-shadow-7);
      }

      .st11 {
        filter: url(#drop-shadow-45);
      }

      .st43 {
        filter: url(#drop-shadow-46);
      }

      .st44 {
        filter: url(#drop-shadow-35);
      }

      .st94 {
        clip-path: url(#clippath-1);
      }

      .st13 {
        filter: url(#drop-shadow-1);
      }

      .st84 {
        font-size: 8.2px;
        letter-spacing: 0em;
      }

      .st14 {
        filter: url(#drop-shadow-23);
      }

      .st15 {
        filter: url(#drop-shadow-61);
      }

      .st45 {
        filter: url(#drop-shadow-5);
      }

      .st95 {
        clip-path: url(#clippath-5);
      }

      .st46 {
        filter: url(#drop-shadow-11);
      }

      .st16 {
        filter: url(#drop-shadow-34);
      }

      .st96 {
        clip-path: url(#clippath-8);
      }

      .st47 {
        filter: url(#drop-shadow-58);
      }

      .st48 {
        filter: url(#drop-shadow-52);
      }

      .st82, .st92, .st83 {
        letter-spacing: 0em;
      }

      .st18 {
        filter: url(#drop-shadow-42);
      }

      .st97 {
        fill: #00a9b9;
      }

      .st98 {
        clip-path: url(#clippath-3);
      }

      .st19 {
        filter: url(#drop-shadow-54);
      }

      .st49 {
        filter: url(#drop-shadow-19);
      }

      .st50 {
        filter: url(#drop-shadow-6);
      }

      .st99 {
        clip-path: url(#clippath-12);
      }

      .st51 {
        filter: url(#drop-shadow-12);
      }

      .st52 {
        filter: url(#drop-shadow-32);
      }

      .st100 {
        clip-path: url(#clippath-14);
      }

      .st53 {
        filter: url(#drop-shadow-21);
      }

      .st54 {
        filter: url(#drop-shadow-49);
      }

      .st21 {
        filter: url(#drop-shadow-17);
      }

      .st23 {
        filter: url(#drop-shadow-31);
      }

      .st55 {
        filter: url(#drop-shadow-2);
      }

      .st56 {
        filter: url(#drop-shadow-9);
      }

      .st32 {
        filter: url(#drop-shadow-56);
      }

      .st57 {
        filter: url(#drop-shadow-3);
      }

      .st25 {
        filter: url(#drop-shadow-14);
      }

      .st101 {
        clip-path: url(#clippath-16);
      }

      .st102 {
        filter: url(#drop-shadow-60);
      }

      .st103 {
        clip-path: url(#clippath-2);
      }

      .st26 {
        filter: url(#drop-shadow-13);
      }

      .st104 {
        filter: url(#drop-shadow-55);
      }

      .st58 {
        filter: url(#drop-shadow-47);
      }

      .st28 {
        filter: url(#drop-shadow-26);
      }

      .st29 {
        filter: url(#drop-shadow-28);
      }

      .st30 {
        filter: url(#drop-shadow-37);
      }

      .st105 {
        clip-path: url(#clippath-13);
      }

      .st59 {
        filter: url(#drop-shadow-43);
      }

      .st60 {
        filter: url(#drop-shadow-44);
      }

      .st31 {
        filter: url(#drop-shadow-51);
      }

      .st61 {
        filter: url(#drop-shadow-50);
      }

      .st62 {
        filter: url(#drop-shadow-39);
      }

      .st63 {
        filter: url(#drop-shadow-22);
      }

      .st64 {
        filter: url(#drop-shadow-30);
      }

      .st106 {
        clip-path: url(#clippath);
      }

      .st65 {
        filter: url(#drop-shadow-63);
      }

      .st66 {
        filter: url(#drop-shadow-59);
      }

      .st107 {
        filter: url(#drop-shadow-27);
      }

      .st67 {
        filter: url(#drop-shadow-24);
      }

      .st68 {
        filter: url(#drop-shadow-18);
      }
    </style>
    <filter id="drop-shadow-1" x="137.9" y="278.6" width="45.6" height="45.6" filterUnits="userSpaceOnUse">
      <feOffset dx="1.6" dy="1.6"/>
      <feGaussianBlur result="blur" stdDeviation="0"/>
      <feFlood flood-color="#000" flood-opacity=".1"/>
      <feComposite in2="blur" operator="in"/>
      <feComposite in="SourceGraphic"/>
    </filter>
    <clipPath id="clippath">
      <circle class="st69" cx="160" cy="300.6" r="15.3" transform="translate(-157.9 178.7) rotate(-41)"/>
    </clipPath>
    <filter id="drop-shadow-2" x="144.8" y="301.5" width="31.1" height="31.1" filterUnits="userSpaceOnUse">
      <feOffset dx=".5" dy=".5"/>
      <feGaussianBlur result="blur1" stdDeviation="0"/>
      <feFlood flood-color="#000" flood-opacity=".1"/>
      <feComposite in2="blur1" operator="in"/>
      <feComposite in="SourceGraphic"/>
    </filter>
    <filter id="drop-shadow-3" x="154.2" y="288.2" width="11.8" height="11.8" filterUnits="userSpaceOnUse">
      <feOffset dx=".2" dy=".2"/>
      <feGaussianBlur result="blur2" stdDeviation="0"/>
      <feFlood flood-color="#000" flood-opacity=".1"/>
      <feComposite in2="blur2" operator="in"/>
      <feComposite in="SourceGraphic"/>
    </filter>
    <filter id="drop-shadow-4" x="137.9" y="338.3" width="45.6" height="45.6" filterUnits="userSpaceOnUse">
      <feOffset dx="1.6" dy="1.6"/>
      <feGaussianBlur result="blur3" stdDeviation="0"/>
      <feFlood flood-color="#000" flood-opacity=".1"/>
      <feComposite in2="blur3" operator="in"/>
      <feComposite in="SourceGraphic"/>
    </filter>
    <clipPath id="clippath-1">
      <circle class="st69" cx="160" cy="360.8" r="15.3" transform="translate(-83.3 50) rotate(-14.1)"/>
    </clipPath>
    <filter id="drop-shadow-5" x="144.8" y="361.7" width="31.1" height="31.1" filterUnits="userSpaceOnUse">
      <feOffset dx=".5" dy=".5"/>
      <feGaussianBlur result="blur4" stdDeviation="0"/>
      <feFlood flood-color="#000" flood-opacity=".1"/>
      <feComposite in2="blur4" operator="in"/>
      <feComposite in="SourceGraphic"/>
    </filter>
    <filter id="drop-shadow-6" x="154.2" y="348.4" width="11.8" height="11.8" filterUnits="userSpaceOnUse">
      <feOffset dx=".2" dy=".2"/>
      <feGaussianBlur result="blur5" stdDeviation="0"/>
      <feFlood flood-color="#000" flood-opacity=".1"/>
      <feComposite in2="blur5" operator="in"/>
      <feComposite in="SourceGraphic"/>
    </filter>
    <filter id="drop-shadow-7" x="267.4" y="278.6" width="45.6" height="45.6" filterUnits="userSpaceOnUse">
      <feOffset dx="1.6" dy="1.6"/>
      <feGaussianBlur result="blur6" stdDeviation="0"/>
      <feFlood flood-color="#000" flood-opacity=".1"/>
      <feComposite in2="blur6" operator="in"/>
      <feComposite in="SourceGraphic"/>
    </filter>
    <clipPath id="clippath-2">
      <circle class="st69" cx="289.2" cy="300.6" r="15.3" transform="translate(-98.6 454.2) rotate(-67.7)"/>
    </clipPath>
    <filter id="drop-shadow-8" x="273.9" y="301.5" width="31.1" height="31.1" filterUnits="userSpaceOnUse">
      <feOffset dx=".5" dy=".5"/>
      <feGaussianBlur result="blur7" stdDeviation="0"/>
      <feFlood flood-color="#000" flood-opacity=".1"/>
      <feComposite in2="blur7" operator="in"/>
      <feComposite in="SourceGraphic"/>
    </filter>
    <filter id="drop-shadow-9" x="283.4" y="288.2" width="11.8" height="11.8" filterUnits="userSpaceOnUse">
      <feOffset dx=".2" dy=".2"/>
      <feGaussianBlur result="blur8" stdDeviation="0"/>
      <feFlood flood-color="#000" flood-opacity=".1"/>
      <feComposite in2="blur8" operator="in"/>
      <feComposite in="SourceGraphic"/>
    </filter>
    <filter id="drop-shadow-10" x="267.4" y="338.3" width="45.6" height="45.6" filterUnits="userSpaceOnUse">
      <feOffset dx="1.6" dy="1.6"/>
      <feGaussianBlur result="blur9" stdDeviation="0"/>
      <feFlood flood-color="#000" flood-opacity=".1"/>
      <feComposite in2="blur9" operator="in"/>
      <feComposite in="SourceGraphic"/>
    </filter>
    <clipPath id="clippath-3">
      <circle class="st69" cx="289.2" cy="360.8" r="15.3" transform="translate(-53.8 50.7) rotate(-9.2)"/>
    </clipPath>
    <filter id="drop-shadow-11" x="273.9" y="361.7" width="31.1" height="31.1" filterUnits="userSpaceOnUse">
      <feOffset dx=".5" dy=".5"/>
      <feGaussianBlur result="blur10" stdDeviation="0"/>
      <feFlood flood-color="#000" flood-opacity=".1"/>
      <feComposite in2="blur10" operator="in"/>
      <feComposite in="SourceGraphic"/>
    </filter>
    <filter id="drop-shadow-12" x="283.4" y="348.4" width="11.8" height="11.8" filterUnits="userSpaceOnUse">
      <feOffset dx=".2" dy=".2"/>
      <feGaussianBlur result="blur11" stdDeviation="0"/>
      <feFlood flood-color="#000" flood-opacity=".1"/>
      <feComposite in2="blur11" operator="in"/>
      <feComposite in="SourceGraphic"/>
    </filter>
    <filter id="drop-shadow-13" x="192.8" y="293.5" width="65.8" height="65.8" filterUnits="userSpaceOnUse">
      <feOffset dx="1.6" dy="1.6"/>
      <feGaussianBlur result="blur12" stdDeviation="0"/>
      <feFlood flood-color="#000" flood-opacity=".1"/>
      <feComposite in2="blur12" operator="in"/>
      <feComposite in="SourceGraphic"/>
    </filter>
    <filter id="drop-shadow-14" x="137.9" y="0" width="45.6" height="45.6" filterUnits="userSpaceOnUse">
      <feOffset dx="1.6" dy="1.6"/>
      <feGaussianBlur result="blur13" stdDeviation="0"/>
      <feFlood flood-color="#000" flood-opacity=".1"/>
      <feComposite in2="blur13" operator="in"/>
      <feComposite in="SourceGraphic"/>
    </filter>
    <clipPath id="clippath-4">
      <circle class="st69" cx="160" cy="22" r="15.3"/>
    </clipPath>
    <filter id="drop-shadow-15" x="144.8" y="22.9" width="31.1" height="31.1" filterUnits="userSpaceOnUse">
      <feOffset dx=".5" dy=".5"/>
      <feGaussianBlur result="blur14" stdDeviation="0"/>
      <feFlood flood-color="#000" flood-opacity=".1"/>
      <feComposite in2="blur14" operator="in"/>
      <feComposite in="SourceGraphic"/>
    </filter>
    <filter id="drop-shadow-16" x="154.2" y="9.6" width="11.8" height="11.8" filterUnits="userSpaceOnUse">
      <feOffset dx=".2" dy=".2"/>
      <feGaussianBlur result="blur15" stdDeviation="0"/>
      <feFlood flood-color="#000" flood-opacity=".1"/>
      <feComposite in2="blur15" operator="in"/>
      <feComposite in="SourceGraphic"/>
    </filter>
    <filter id="drop-shadow-17" x="137.9" y="59.7" width="45.6" height="45.6" filterUnits="userSpaceOnUse">
      <feOffset dx="1.6" dy="1.6"/>
      <feGaussianBlur result="blur16" stdDeviation="0"/>
      <feFlood flood-color="#000" flood-opacity=".1"/>
      <feComposite in2="blur16" operator="in"/>
      <feComposite in="SourceGraphic"/>
    </filter>
    <clipPath id="clippath-5">
      <circle class="st69" cx="160" cy="82.2" r="15.3" transform="translate(-14.7 125.1) rotate(-41)"/>
    </clipPath>
    <filter id="drop-shadow-18" x="144.8" y="83.1" width="31.1" height="31.1" filterUnits="userSpaceOnUse">
      <feOffset dx=".5" dy=".5"/>
      <feGaussianBlur result="blur17" stdDeviation="0"/>
      <feFlood flood-color="#000" flood-opacity=".1"/>
      <feComposite in2="blur17" operator="in"/>
      <feComposite in="SourceGraphic"/>
    </filter>
    <filter id="drop-shadow-19" x="154.2" y="69.8" width="11.8" height="11.8" filterUnits="userSpaceOnUse">
      <feOffset dx=".2" dy=".2"/>
      <feGaussianBlur result="blur18" stdDeviation="0"/>
      <feFlood flood-color="#000" flood-opacity=".1"/>
      <feComposite in2="blur18" operator="in"/>
      <feComposite in="SourceGraphic"/>
    </filter>
    <filter id="drop-shadow-20" x="267.4" y="0" width="45.6" height="45.6" filterUnits="userSpaceOnUse">
      <feOffset dx="1.6" dy="1.6"/>
      <feGaussianBlur result="blur19" stdDeviation="0"/>
      <feFlood flood-color="#000" flood-opacity=".1"/>
      <feComposite in2="blur19" operator="in"/>
      <feComposite in="SourceGraphic"/>
    </filter>
    <clipPath id="clippath-6">
      <circle class="st69" cx="289.2" cy="22" r="15.3"/>
    </clipPath>
    <filter id="drop-shadow-21" x="273.9" y="22.9" width="31.1" height="31.1" filterUnits="userSpaceOnUse">
      <feOffset dx=".5" dy=".5"/>
      <feGaussianBlur result="blur20" stdDeviation="0"/>
      <feFlood flood-color="#000" flood-opacity=".1"/>
      <feComposite in2="blur20" operator="in"/>
      <feComposite in="SourceGraphic"/>
    </filter>
    <filter id="drop-shadow-22" x="283.4" y="9.6" width="11.8" height="11.8" filterUnits="userSpaceOnUse">
      <feOffset dx=".2" dy=".2"/>
      <feGaussianBlur result="blur21" stdDeviation="0"/>
      <feFlood flood-color="#000" flood-opacity=".1"/>
      <feComposite in2="blur21" operator="in"/>
      <feComposite in="SourceGraphic"/>
    </filter>
    <filter id="drop-shadow-23" x="267.4" y="59.7" width="45.6" height="45.6" filterUnits="userSpaceOnUse">
      <feOffset dx="1.6" dy="1.6"/>
      <feGaussianBlur result="blur22" stdDeviation="0"/>
      <feFlood flood-color="#000" flood-opacity=".1"/>
      <feComposite in2="blur22" operator="in"/>
      <feComposite in="SourceGraphic"/>
    </filter>
    <clipPath id="clippath-7">
      <circle class="st69" cx="289.2" cy="82.2" r="15.3" transform="translate(103.5 318.6) rotate(-67.7)"/>
    </clipPath>
    <filter id="drop-shadow-24" x="273.9" y="83.1" width="31.1" height="31.1" filterUnits="userSpaceOnUse">
      <feOffset dx=".5" dy=".5"/>
      <feGaussianBlur result="blur23" stdDeviation="0"/>
      <feFlood flood-color="#000" flood-opacity=".1"/>
      <feComposite in2="blur23" operator="in"/>
      <feComposite in="SourceGraphic"/>
    </filter>
    <filter id="drop-shadow-25" x="283.4" y="69.8" width="11.8" height="11.8" filterUnits="userSpaceOnUse">
      <feOffset dx=".2" dy=".2"/>
      <feGaussianBlur result="blur24" stdDeviation="0"/>
      <feFlood flood-color="#000" flood-opacity=".1"/>
      <feComposite in2="blur24" operator="in"/>
      <feComposite in="SourceGraphic"/>
    </filter>
    <filter id="drop-shadow-26" x="192.8" y="14.9" width="65.8" height="65.8" filterUnits="userSpaceOnUse">
      <feOffset dx="1.6" dy="1.6"/>
      <feGaussianBlur result="blur25" stdDeviation="0"/>
      <feFlood flood-color="#000" flood-opacity=".1"/>
      <feComposite in2="blur25" operator="in"/>
      <feComposite in="SourceGraphic"/>
    </filter>
    <filter id="drop-shadow-27" x="209.7" y="35.2" width="31.8" height="24.6" filterUnits="userSpaceOnUse">
      <feOffset dx="1.8" dy="1.8"/>
      <feGaussianBlur result="blur26" stdDeviation="0"/>
      <feFlood flood-color="#000" flood-opacity=".1"/>
      <feComposite in2="blur26" operator="in"/>
      <feComposite in="SourceGraphic"/>
    </filter>
    <filter id="drop-shadow-28" x="2" y="146.1" width="45.6" height="45.6" filterUnits="userSpaceOnUse">
      <feOffset dx="1.6" dy="1.6"/>
      <feGaussianBlur result="blur27" stdDeviation="0"/>
      <feFlood flood-color="#000" flood-opacity=".1"/>
      <feComposite in2="blur27" operator="in"/>
      <feComposite in="SourceGraphic"/>
    </filter>
    <clipPath id="clippath-8">
      <circle class="st69" cx="24.1" cy="168.1" r="15.3" transform="translate(-26.6 6) rotate(-9.2)"/>
    </clipPath>
    <filter id="drop-shadow-29" x="8.9" y="169" width="31.1" height="31.1" filterUnits="userSpaceOnUse">
      <feOffset dx=".5" dy=".5"/>
      <feGaussianBlur result="blur28" stdDeviation="0"/>
      <feFlood flood-color="#000" flood-opacity=".1"/>
      <feComposite in2="blur28" operator="in"/>
      <feComposite in="SourceGraphic"/>
    </filter>
    <filter id="drop-shadow-30" x="18.3" y="155.7" width="11.8" height="11.8" filterUnits="userSpaceOnUse">
      <feOffset dx=".2" dy=".2"/>
      <feGaussianBlur result="blur29" stdDeviation="0"/>
      <feFlood flood-color="#000" flood-opacity=".1"/>
      <feComposite in2="blur29" operator="in"/>
      <feComposite in="SourceGraphic"/>
    </filter>
    <filter id="drop-shadow-31" x="2" y="205.8" width="45.6" height="45.6" filterUnits="userSpaceOnUse">
      <feOffset dx="1.6" dy="1.6"/>
      <feGaussianBlur result="blur30" stdDeviation="0"/>
      <feFlood flood-color="#000" flood-opacity=".1"/>
      <feComposite in2="blur30" operator="in"/>
      <feComposite in="SourceGraphic"/>
    </filter>
    <clipPath id="clippath-9">
      <circle class="st69" cx="24.1" cy="228.3" r="15.3"/>
    </clipPath>
    <filter id="drop-shadow-32" x="8.9" y="229.2" width="31.1" height="31.1" filterUnits="userSpaceOnUse">
      <feOffset dx=".5" dy=".5"/>
      <feGaussianBlur result="blur31" stdDeviation="0"/>
      <feFlood flood-color="#000" flood-opacity=".1"/>
      <feComposite in2="blur31" operator="in"/>
      <feComposite in="SourceGraphic"/>
    </filter>
    <filter id="drop-shadow-33" x="18.3" y="215.9" width="11.8" height="11.8" filterUnits="userSpaceOnUse">
      <feOffset dx=".2" dy=".2"/>
      <feGaussianBlur result="blur32" stdDeviation="0"/>
      <feFlood flood-color="#000" flood-opacity=".1"/>
      <feComposite in2="blur32" operator="in"/>
      <feComposite in="SourceGraphic"/>
    </filter>
    <filter id="drop-shadow-34" x="67" y="242.2" width="45.6" height="45.6" filterUnits="userSpaceOnUse">
      <feOffset dx="1.6" dy="1.6"/>
      <feGaussianBlur result="blur33" stdDeviation="0"/>
      <feFlood flood-color="#000" flood-opacity=".1"/>
      <feComposite in2="blur33" operator="in"/>
      <feComposite in="SourceGraphic"/>
    </filter>
    <clipPath id="clippath-10">
      <circle class="st69" cx="89" cy="264.2" r="15.3" transform="translate(-160.7 140.3) rotate(-45)"/>
    </clipPath>
    <filter id="drop-shadow-35" x="73.7" y="265.1" width="31.1" height="31.1" filterUnits="userSpaceOnUse">
      <feOffset dx=".5" dy=".5"/>
      <feGaussianBlur result="blur34" stdDeviation="0"/>
      <feFlood flood-color="#000" flood-opacity=".1"/>
      <feComposite in2="blur34" operator="in"/>
      <feComposite in="SourceGraphic"/>
    </filter>
    <filter id="drop-shadow-36" x="83.2" y="251.8" width="11.8" height="11.8" filterUnits="userSpaceOnUse">
      <feOffset dx=".2" dy=".2"/>
      <feGaussianBlur result="blur35" stdDeviation="0"/>
      <feFlood flood-color="#000" flood-opacity=".1"/>
      <feComposite in2="blur35" operator="in"/>
      <feComposite in="SourceGraphic"/>
    </filter>
    <filter id="drop-shadow-37" x="67" y="102.9" width="45.6" height="45.6" filterUnits="userSpaceOnUse">
      <feOffset dx="1.6" dy="1.6"/>
      <feGaussianBlur result="blur36" stdDeviation="0"/>
      <feFlood flood-color="#000" flood-opacity=".1"/>
      <feComposite in2="blur36" operator="in"/>
      <feComposite in="SourceGraphic"/>
    </filter>
    <clipPath id="clippath-11">
      <circle class="st69" cx="89" cy="124.9" r="15.3" transform="translate(-62.2 99.5) rotate(-45)"/>
    </clipPath>
    <filter id="drop-shadow-38" x="73.7" y="125.8" width="31.1" height="31.1" filterUnits="userSpaceOnUse">
      <feOffset dx=".5" dy=".5"/>
      <feGaussianBlur result="blur37" stdDeviation="0"/>
      <feFlood flood-color="#000" flood-opacity=".1"/>
      <feComposite in2="blur37" operator="in"/>
      <feComposite in="SourceGraphic"/>
    </filter>
    <filter id="drop-shadow-39" x="83.2" y="112.5" width="11.8" height="11.8" filterUnits="userSpaceOnUse">
      <feOffset dx=".2" dy=".2"/>
      <feGaussianBlur result="blur38" stdDeviation="0"/>
      <feFlood flood-color="#000" flood-opacity=".1"/>
      <feComposite in2="blur38" operator="in"/>
      <feComposite in="SourceGraphic"/>
    </filter>
    <filter id="drop-shadow-40" x="56.9" y="161" width="65.8" height="65.8" filterUnits="userSpaceOnUse">
      <feOffset dx="1.6" dy="1.6"/>
      <feGaussianBlur result="blur39" stdDeviation="0"/>
      <feFlood flood-color="#000" flood-opacity=".1"/>
      <feComposite in2="blur39" operator="in"/>
      <feComposite in="SourceGraphic"/>
    </filter>
    <filter id="drop-shadow-41" x="74.6" y="176.6" width="31.2" height="31.2" filterUnits="userSpaceOnUse">
      <feOffset dx="1.8" dy="1.8"/>
      <feGaussianBlur result="blur40" stdDeviation="0"/>
      <feFlood flood-color="#000" flood-opacity=".1"/>
      <feComposite in2="blur40" operator="in"/>
      <feComposite in="SourceGraphic"/>
    </filter>
    <filter id="drop-shadow-42" x="408.7" y="146.1" width="45.6" height="45.6" filterUnits="userSpaceOnUse">
      <feOffset dx="1.6" dy="1.6"/>
      <feGaussianBlur result="blur41" stdDeviation="0"/>
      <feFlood flood-color="#000" flood-opacity=".1"/>
      <feComposite in2="blur41" operator="in"/>
      <feComposite in="SourceGraphic"/>
    </filter>
    <clipPath id="clippath-12">
      <circle class="st69" cx="430.5" cy="168.1" r="15.3" transform="translate(7.2 353.6) rotate(-45)"/>
    </clipPath>
    <filter id="drop-shadow-43" x="415.2" y="169" width="31.1" height="31.1" filterUnits="userSpaceOnUse">
      <feOffset dx=".5" dy=".5"/>
      <feGaussianBlur result="blur42" stdDeviation="0"/>
      <feFlood flood-color="#000" flood-opacity=".1"/>
      <feComposite in2="blur42" operator="in"/>
      <feComposite in="SourceGraphic"/>
    </filter>
    <filter id="drop-shadow-44" x="424.7" y="155.7" width="11.8" height="11.8" filterUnits="userSpaceOnUse">
      <feOffset dx=".2" dy=".2"/>
      <feGaussianBlur result="blur43" stdDeviation="0"/>
      <feFlood flood-color="#000" flood-opacity=".1"/>
      <feComposite in2="blur43" operator="in"/>
      <feComposite in="SourceGraphic"/>
    </filter>
    <filter id="drop-shadow-45" x="408.7" y="205.8" width="45.6" height="45.6" filterUnits="userSpaceOnUse">
      <feOffset dx="1.6" dy="1.6"/>
      <feGaussianBlur result="blur44" stdDeviation="0"/>
      <feFlood flood-color="#000" flood-opacity=".1"/>
      <feComposite in2="blur44" operator="in"/>
      <feComposite in="SourceGraphic"/>
    </filter>
    <clipPath id="clippath-13">
      <circle class="st69" cx="430.5" cy="228.3" r="15.3"/>
    </clipPath>
    <filter id="drop-shadow-46" x="415.2" y="229.2" width="31.1" height="31.1" filterUnits="userSpaceOnUse">
      <feOffset dx=".5" dy=".5"/>
      <feGaussianBlur result="blur45" stdDeviation="0"/>
      <feFlood flood-color="#000" flood-opacity=".1"/>
      <feComposite in2="blur45" operator="in"/>
      <feComposite in="SourceGraphic"/>
    </filter>
    <filter id="drop-shadow-47" x="424.7" y="215.9" width="11.8" height="11.8" filterUnits="userSpaceOnUse">
      <feOffset dx=".2" dy=".2"/>
      <feGaussianBlur result="blur46" stdDeviation="0"/>
      <feFlood flood-color="#000" flood-opacity=".1"/>
      <feComposite in2="blur46" operator="in"/>
      <feComposite in="SourceGraphic"/>
    </filter>
    <filter id="drop-shadow-48" x="343.6" y="242.2" width="45.6" height="45.6" filterUnits="userSpaceOnUse">
      <feOffset dx="1.6" dy="1.6"/>
      <feGaussianBlur result="blur47" stdDeviation="0"/>
      <feFlood flood-color="#000" flood-opacity=".1"/>
      <feComposite in2="blur47" operator="in"/>
      <feComposite in="SourceGraphic"/>
    </filter>
    <clipPath id="clippath-14">
      <circle class="st69" cx="365.6" cy="264.2" r="15.3" transform="translate(24.9 559.9) rotate(-76.8)"/>
    </clipPath>
    <filter id="drop-shadow-49" x="350.3" y="265.1" width="31.1" height="31.1" filterUnits="userSpaceOnUse">
      <feOffset dx=".5" dy=".5"/>
      <feGaussianBlur result="blur48" stdDeviation="0"/>
      <feFlood flood-color="#000" flood-opacity=".1"/>
      <feComposite in2="blur48" operator="in"/>
      <feComposite in="SourceGraphic"/>
    </filter>
    <filter id="drop-shadow-50" x="359.8" y="251.8" width="11.8" height="11.8" filterUnits="userSpaceOnUse">
      <feOffset dx=".2" dy=".2"/>
      <feGaussianBlur result="blur49" stdDeviation="0"/>
      <feFlood flood-color="#000" flood-opacity=".1"/>
      <feComposite in2="blur49" operator="in"/>
      <feComposite in="SourceGraphic"/>
    </filter>
    <filter id="drop-shadow-51" x="343.6" y="102.9" width="45.6" height="45.6" filterUnits="userSpaceOnUse">
      <feOffset dx="1.6" dy="1.6"/>
      <feGaussianBlur result="blur50" stdDeviation="0"/>
      <feFlood flood-color="#000" flood-opacity=".1"/>
      <feComposite in2="blur50" operator="in"/>
      <feComposite in="SourceGraphic"/>
    </filter>
    <clipPath id="clippath-15">
      <circle class="st69" cx="365.6" cy="124.9" r="15.3" transform="translate(160.6 452.3) rotate(-76.8)"/>
    </clipPath>
    <filter id="drop-shadow-52" x="350.3" y="125.8" width="31.1" height="31.1" filterUnits="userSpaceOnUse">
      <feOffset dx=".5" dy=".5"/>
      <feGaussianBlur result="blur51" stdDeviation="0"/>
      <feFlood flood-color="#000" flood-opacity=".1"/>
      <feComposite in2="blur51" operator="in"/>
      <feComposite in="SourceGraphic"/>
    </filter>
    <filter id="drop-shadow-53" x="359.8" y="112.5" width="11.8" height="11.8" filterUnits="userSpaceOnUse">
      <feOffset dx=".2" dy=".2"/>
      <feGaussianBlur result="blur52" stdDeviation="0"/>
      <feFlood flood-color="#000" flood-opacity=".1"/>
      <feComposite in2="blur52" operator="in"/>
      <feComposite in="SourceGraphic"/>
    </filter>
    <filter id="drop-shadow-54" x="333.5" y="161" width="65.8" height="65.8" filterUnits="userSpaceOnUse">
      <feOffset dx="1.6" dy="1.6"/>
      <feGaussianBlur result="blur53" stdDeviation="0"/>
      <feFlood flood-color="#000" flood-opacity=".1"/>
      <feComposite in2="blur53" operator="in"/>
      <feComposite in="SourceGraphic"/>
    </filter>
    <filter id="drop-shadow-55" x="353.8" y="180.4" width="25.7" height="26" filterUnits="userSpaceOnUse">
      <feOffset dx="2" dy="2"/>
      <feGaussianBlur result="blur54" stdDeviation="0"/>
      <feFlood flood-color="#000" flood-opacity=".1"/>
      <feComposite in2="blur54" operator="in"/>
      <feComposite in="SourceGraphic"/>
    </filter>
    <filter id="drop-shadow-56" x="159.4" y="122.4" width="138.5" height="138.5" filterUnits="userSpaceOnUse">
      <feOffset dx="1.9" dy="1.9"/>
      <feGaussianBlur result="blur55" stdDeviation="0"/>
      <feFlood flood-color="#000" flood-opacity=".1"/>
      <feComposite in2="blur55" operator="in"/>
      <feComposite in="SourceGraphic"/>
    </filter>
    <filter id="drop-shadow-57" x="184.6" y="132.8" width="87.6" height="87.6" filterUnits="userSpaceOnUse">
      <feOffset dx="1.4" dy="1.4"/>
      <feGaussianBlur result="blur56" stdDeviation="0"/>
      <feFlood flood-color="#000" flood-opacity=".1"/>
      <feComposite in2="blur56" operator="in"/>
      <feComposite in="SourceGraphic"/>
    </filter>
    <clipPath id="clippath-16">
      <circle class="st69" cx="227.7" cy="175.9" r="42"/>
    </clipPath>
    <filter id="drop-shadow-58" x="185.6" y="178.3" width="85.5" height="85.5" filterUnits="userSpaceOnUse">
      <feOffset dx="1.4" dy="1.4"/>
      <feGaussianBlur result="blur57" stdDeviation="0"/>
      <feFlood flood-color="#000" flood-opacity=".1"/>
      <feComposite in2="blur57" operator="in"/>
      <feComposite in="SourceGraphic"/>
    </filter>
    <filter id="drop-shadow-59" x="211.7" y="141.7" width="32.5" height="32.5" filterUnits="userSpaceOnUse">
      <feOffset dx=".5" dy=".5"/>
      <feGaussianBlur result="blur58" stdDeviation="0"/>
      <feFlood flood-color="#000" flood-opacity=".1"/>
      <feComposite in2="blur58" operator="in"/>
      <feComposite in="SourceGraphic"/>
    </filter>
    <filter id="drop-shadow-60" x="139.8" y="102.8" width="177.7" height="177.7" filterUnits="userSpaceOnUse">
      <feOffset dx="1.9" dy="1.9"/>
      <feGaussianBlur result="blur59" stdDeviation="0"/>
      <feFlood flood-color="#000" flood-opacity=".1"/>
      <feComposite in2="blur59" operator="in"/>
      <feComposite in="SourceGraphic"/>
    </filter>
    <filter id="drop-shadow-61" x="203.9" y="373.3" width="45.6" height="45.6" filterUnits="userSpaceOnUse">
      <feOffset dx="1.6" dy="1.6"/>
      <feGaussianBlur result="blur60" stdDeviation="0"/>
      <feFlood flood-color="#000" flood-opacity=".1"/>
      <feComposite in2="blur60" operator="in"/>
      <feComposite in="SourceGraphic"/>
    </filter>
    <clipPath id="clippath-17">
      <circle class="st69" cx="225.7" cy="395.2" r="15.3" transform="translate(-225.6 454.2) rotate(-67.7)"/>
    </clipPath>
    <filter id="drop-shadow-62" x="210.4" y="396.1" width="31.1" height="31.1" filterUnits="userSpaceOnUse">
      <feOffset dx=".5" dy=".5"/>
      <feGaussianBlur result="blur61" stdDeviation="0"/>
      <feFlood flood-color="#000" flood-opacity=".1"/>
      <feComposite in2="blur61" operator="in"/>
      <feComposite in="SourceGraphic"/>
    </filter>
    <filter id="drop-shadow-63" x="219.8" y="382.8" width="11.8" height="11.8" filterUnits="userSpaceOnUse">
      <feOffset dx=".2" dy=".2"/>
      <feGaussianBlur result="blur62" stdDeviation="0"/>
      <feFlood flood-color="#000" flood-opacity=".1"/>
      <feComposite in2="blur62" operator="in"/>
      <feComposite in="SourceGraphic"/>
    </filter>
  </defs>
  <g id="OBJECTS">
    <g>
      <g>
        <polyline class="st12" points="292.1 299.8 224.4 325.6 291.5 362.2"/>
        <polyline class="st12" points="157.2 299.8 224.9 325.6 157.8 362.2"/>
        <line class="st27" x1="225.2" y1="274.7" x2="225.2" y2="319.8"/>
      </g>
      <g>
        <circle class="st13" cx="159.9" cy="300.6" r="20"/>
        <g class="st86">
          <g class="st106">
            <circle class="st55" cx="160" cy="316.7" r="15.3" transform="translate(-72.5 48.7) rotate(-14.1)"/>
            <circle class="st57" cx="160" cy="294" r="5.8"/>
          </g>
        </g>
      </g>
      <g>
        <circle class="st9" cx="159.9" cy="360.3" r="20"/>
        <g class="st86">
          <g class="st94">
            <circle class="st45" cx="160" cy="376.9" r="15.3" transform="translate(-87.2 50.5) rotate(-14.1)"/>
            <path class="st50" d="M154.2,354.2c0,3.2,2.6,5.8,5.8,5.8s5.8-2.6,5.8-5.8-2.6-5.8-5.8-5.8-5.8,2.6-5.8,5.8Z"/>
          </g>
        </g>
      </g>
      <g>
        <circle class="st10" cx="289.4" cy="300.6" r="20"/>
        <g class="st86">
          <g class="st103">
            <circle class="st35" cx="289.2" cy="316.7" r="15.3" transform="translate(-46.8 50.1) rotate(-9.2)"/>
            <circle class="st56" cx="289.2" cy="294" r="5.8"/>
          </g>
        </g>
      </g>
      <g>
        <circle class="st2" cx="289.4" cy="360.3" r="20"/>
        <g class="st86">
          <g class="st98">
            <circle class="st46" cx="289.2" cy="376.9" r="15.3" transform="translate(-56.4 50.9) rotate(-9.2)"/>
            <path class="st51" d="M283.4,354.2c0,3.2,2.6,5.8,5.8,5.8s5.8-2.6,5.8-5.8-2.6-5.8-5.8-5.8-5.8,2.6-5.8,5.8Z"/>
          </g>
        </g>
      </g>
      <circle class="st26" cx="224.9" cy="325.6" r="28.5"/>
    </g>
    <g>
      <g>
        <line class="st24" x1="225.2" y1="75.7" x2="225.2" y2="108.5"/>
        <polyline class="st17" points="292.1 21.2 224.4 47 291.5 83.5"/>
        <polyline class="st17" points="157.2 21.2 224.9 47 157.8 83.5"/>
      </g>
      <g>
        <circle class="st25" cx="159.9" cy="22" r="20"/>
        <g class="st86">
          <g class="st77">
            <circle class="st33" cx="160" cy="38.1" r="15.3" transform="translate(14.2 114.3) rotate(-41)"/>
            <circle class="st34" cx="160" cy="15.4" r="5.8"/>
          </g>
        </g>
      </g>
      <g>
        <circle class="st21" cx="159.9" cy="81.7" r="20" transform="translate(-11 26.5) rotate(-9.2)"/>
        <g class="st86">
          <g class="st95">
            <circle class="st68" cx="160" cy="98.3" r="15.3" transform="translate(-19.2 42.1) rotate(-14.1)"/>
            <path class="st49" d="M154.2,75.6c0,3.2,2.6,5.8,5.8,5.8s5.8-2.6,5.8-5.8-2.6-5.8-5.8-5.8-5.8,2.6-5.8,5.8Z"/>
          </g>
        </g>
      </g>
      <g>
        <circle class="st4" cx="289.4" cy="22" r="20"/>
        <g class="st86">
          <g class="st73">
            <circle class="st53" cx="289.2" cy="38.1" r="15.3" transform="translate(144.2 291.2) rotate(-67.7)"/>
            <circle class="st63" cx="289.2" cy="15.4" r="5.8"/>
          </g>
        </g>
      </g>
      <g>
        <circle class="st14" cx="289.4" cy="81.7" r="20" transform="translate(27 228.6) rotate(-45)"/>
        <g class="st86">
          <g class="st74">
            <circle class="st67" cx="289.2" cy="98.3" r="15.3" transform="translate(-12 47.4) rotate(-9.2)"/>
            <path class="st38" d="M283.4,75.6c0,3.2,2.6,5.8,5.8,5.8s5.8-2.6,5.8-5.8-2.6-5.8-5.8-5.8-5.8,2.6-5.8,5.8Z"/>
          </g>
        </g>
      </g>
      <g>
        <circle class="st28" cx="224.9" cy="47" r="28.5"/>
        <g class="st107">
          <path class="st0" d="M236.1,35.2h-22.7c-2,0-3.7,1.6-3.7,3.7v15.5c0,2,1.6,3.7,3.7,3.7h22.7c2,0,3.7-1.6,3.7-3.7v-15.5c0-2-1.6-3.7-3.7-3.7h0ZM238,54.4c0,1.1-.9,2-2,2h-22.7c-1.1,0-2-.9-2-2v-15.5c0-1.1.9-2,2-2h22.7c1.1,0,2,.9,2,2v15.5h0ZM238,54.4"/>
          <path class="st0" d="M228.6,46.5l7.3-6.6c.3-.3.4-.8,0-1.2-.3-.3-.8-.4-1.2,0l-10.1,9.1-2-1.8s0,0,0,0c0,0,0,0-.1-.1l-8-7.2c-.3-.3-.9-.3-1.2,0-.3.3-.3.9,0,1.2l7.4,6.6-7.4,6.9c-.3.3-.4.8,0,1.2.2.2.4.3.6.3s.4,0,.6-.2l7.5-7,2,1.8c.2.1.4.2.6.2s.4,0,.6-.2l2.1-1.9,7.5,7.1c.2.2.4.2.6.2s.4,0,.6-.3c.3-.3.3-.9,0-1.2l-7.4-7ZM228.6,46.5"/>
        </g>
      </g>
    </g>
    <g>
      <g>
        <line class="st22" x1="89" y1="196" x2="89" y2="134.9"/>
        <line class="st22" x1="89" y1="255.7" x2="89" y2="194.6"/>
        <polyline class="st22" points="21.3 167.3 89 193.1 21.9 229.6"/>
        <line class="st20" x1="104.1" y1="193.4" x2="145.3" y2="193.4"/>
      </g>
      <g>
        <circle class="st29" cx="24" cy="168.1" r="20" transform="translate(-26.5 6) rotate(-9.2)"/>
        <g class="st86">
          <g class="st96">
            <circle class="st37" cx="24.1" cy="184.2" r="15.3"/>
            <path class="st64" d="M18.3,161.5c0,3.2,2.6,5.8,5.8,5.8s5.8-2.6,5.8-5.8-2.6-5.8-5.8-5.8-5.8,2.6-5.8,5.8Z"/>
          </g>
        </g>
      </g>
      <g>
        <circle class="st23" cx="24" cy="227.8" r="20"/>
        <g class="st86">
          <g class="st88">
            <circle class="st52" cx="24.1" cy="244.4" r="15.3" transform="translate(-210.9 173.2) rotate(-67.5)"/>
            <circle class="st36" cx="24.1" cy="221.7" r="5.8"/>
          </g>
        </g>
      </g>
      <g>
        <circle class="st16" cx="89" cy="264.2" r="20"/>
        <g class="st86">
          <g class="st89">
            <circle class="st44" cx="89" cy="280.3" r="15.3"/>
            <path class="st40" d="M83.2,257.6c0,3.2,2.6,5.8,5.8,5.8s5.8-2.6,5.8-5.8-2.6-5.8-5.8-5.8-5.8,2.6-5.8,5.8Z"/>
          </g>
        </g>
      </g>
      <g>
        <circle class="st30" cx="89" cy="124.9" r="20"/>
        <g class="st86">
          <g class="st93">
            <circle class="st41" cx="89" cy="141" r="15.3"/>
            <path class="st62" d="M83.2,118.3c0,3.2,2.6,5.8,5.8,5.8s5.8-2.6,5.8-5.8-2.6-5.8-5.8-5.8-5.8,2.6-5.8,5.8Z"/>
          </g>
        </g>
      </g>
      <g>
        <circle class="st7" cx="89" cy="193.1" r="28.5"/>
        <g class="st90">
          <path class="st8" d="M99.4,181.3c-2.7-2.7-6.3-4.2-10.1-4.2s-7.4,1.5-10.1,4.2c-5.2,5.2-5.6,13.6-.9,19.2-.5.9-1.2,2-2.3,2.5-.5.3-.8.8-.7,1.4,0,.6.5,1,1.1,1.1.3,0,.7,0,1.1,0,1.3,0,3.1-.3,5-1.7,2.1,1.1,4.4,1.7,6.8,1.7,3.7,0,7.4-1.4,10.1-4.2,2.7-2.7,4.2-6.3,4.2-10.1s-1.5-7.4-4.2-10.1h0ZM98.3,200.3c-4.1,4.1-10.4,4.9-15.4,2-.3-.2-.7-.1-1,.1,0,0,0,0,0,0-1.6,1.3-3.2,1.5-4.3,1.5h0c1.2-.9,2-2.2,2.5-3.3,0-.2,0-.4,0-.5,0-.2,0-.3-.2-.5-4.4-5-4.2-12.6.5-17.4,4.9-4.9,13-4.9,17.9,0,4.9,4.9,4.9,13,0,17.9h0ZM98.3,200.3"/>
          <path class="st8" d="M90.3,191.4c0,.6-.4,1-1,1s-1-.4-1-1,.4-1,1-1,1,.4,1,1h0ZM90.3,191.4"/>
          <path class="st8" d="M95.5,191.4c0,.6-.4,1-1,1s-1-.4-1-1,.4-1,1-1,1,.4,1,1h0ZM95.5,191.4"/>
          <path class="st8" d="M85.1,191.4c0,.6-.4,1-1,1s-1-.4-1-1,.4-1,1-1,1,.4,1,1h0ZM85.1,191.4"/>
        </g>
      </g>
    </g>
    <g>
      <g>
        <line class="st5" x1="365.6" y1="196" x2="365.6" y2="134.9"/>
        <line class="st5" x1="365.6" y1="255.7" x2="365.6" y2="194.6"/>
        <polyline class="st5" points="433.3 167.3 365.6 193.1 432.8 229.6"/>
        <line class="st3" x1="350.5" y1="193.4" x2="309.3" y2="193.4"/>
      </g>
      <g>
        <circle class="st18" cx="430.6" cy="168.1" r="20" transform="translate(168.9 549.1) rotate(-76.8)"/>
        <g class="st86">
          <g class="st99">
            <circle class="st59" cx="430.5" cy="184.2" r="15.3"/>
            <path class="st60" d="M436.3,161.5c0,3.2-2.6,5.8-5.8,5.8s-5.8-2.6-5.8-5.8,2.6-5.8,5.8-5.8,5.8,2.6,5.8,5.8Z"/>
          </g>
        </g>
      </g>
      <g>
        <circle class="st11" cx="430.6" cy="227.8" r="20"/>
        <g class="st86">
          <g class="st105">
            <circle class="st43" cx="430.5" cy="244.4" r="15.3" transform="translate(93.1 606.7) rotate(-76.6)"/>
            <path class="st58" d="M436.3,221.7c0,3.2-2.6,5.8-5.8,5.8s-5.8-2.6-5.8-5.8,2.6-5.8,5.8-5.8,5.8,2.6,5.8,5.8Z"/>
          </g>
        </g>
      </g>
      <g>
        <circle class="st1" cx="365.6" cy="264.2" r="20"/>
        <g class="st86">
          <g class="st100">
            <circle class="st54" cx="365.6" cy="280.3" r="15.3"/>
            <circle class="st61" cx="365.6" cy="257.6" r="5.8"/>
          </g>
        </g>
      </g>
      <g>
        <circle class="st31" cx="365.6" cy="124.9" r="20"/>
        <g class="st86">
          <g class="st76">
            <circle class="st48" cx="365.6" cy="141" r="15.3"/>
            <path class="st39" d="M371.4,118.3c0,3.2-2.6,5.8-5.8,5.8s-5.8-2.6-5.8-5.8,2.6-5.8,5.8-5.8,5.8,2.6,5.8,5.8Z"/>
          </g>
        </g>
      </g>
      <g>
        <circle class="st19" cx="365.6" cy="193.1" r="28.5"/>
        <g class="st104">
          <path class="st87" d="M359.6,192.2c-3.2,0-5.9-2.6-5.9-5.9s2.6-5.9,5.9-5.9,5.9,2.6,5.9,5.9-2.6,5.9-5.9,5.9ZM359.6,183.3c-1.6,0-2.9,1.3-2.9,2.9s1.3,2.9,2.9,2.9,2.9-1.3,2.9-2.9-1.3-2.9-2.9-2.9Z"/>
          <path class="st87" d="M371.6,204.4c-3.2,0-5.9-2.6-5.9-5.9s2.6-5.9,5.9-5.9,5.9,2.6,5.9,5.9-2.6,5.9-5.9,5.9ZM371.6,195.6c-1.6,0-2.9,1.3-2.9,2.9s1.3,2.9,2.9,2.9,2.9-1.3,2.9-2.9-1.3-2.9-2.9-2.9Z"/>
          <path class="st87" d="M356,203.6c-.4,0-.8-.1-1-.4-.6-.6-.6-1.5,0-2.1l19.3-19.3c.6-.6,1.5-.6,2.1,0,.6.6.6,1.5,0,2.1l-19.3,19.3c-.3.3-.7.4-1,.4Z"/>
        </g>
      </g>
    </g>
    <g>
      <g>
        <circle class="st32" cx="227.7" cy="190.7" r="68.3"/>
        <g>
          <circle class="st6" cx="227.7" cy="175.9" r="42"/>
          <g class="st101">
            <circle class="st47" cx="227.7" cy="220.4" r="42"/>
            <circle class="st66" cx="227.7" cy="157.7" r="16"/>
          </g>
        </g>
      </g>
      <g class="st102">
        <path class="st0" d="M171.3,134.3c31.1-31.1,81.6-31.1,112.7,0l5.8-5.8c-34.3-34.3-90.1-34.3-124.4,0-34.3,34.3-34.3,90.1,0,124.4l5.8-5.8c-31.1-31.1-31.1-81.6,0-112.7Z"/>
        <path class="st78" d="M171.3,134.3c.2-.2.5-.4.7-.7l-5.8-5.8c-.2.2-.5.4-.7.7-34.3,34.3-34.3,90.1,0,124.4l5.8-5.8c-31.1-31.1-31.1-81.6,0-112.7Z"/>
        <path class="st97" d="M284,247.1c-31.1,31.1-81.6,31.1-112.7,0l-5.8,5.8c34.3,34.3,90.1,34.3,124.4,0,34.3-34.3,34.3-90.1,0-124.4l-5.8,5.8c31.1,31.1,31.1,81.6,0,112.7Z"/>
        <path class="st87" d="M284,247.1c-.2.2-.5.4-.7.7l5.8,5.8c.2-.2.5-.4.7-.7,34.3-34.3,34.3-90.1,0-124.4l-5.8,5.8c31.1,31.1,31.1,81.6,0,112.7Z"/>
      </g>
    </g>
    <line class="st12" x1="227.3" y1="408.1" x2="225.3" y2="356.6"/>
    <g>
      <circle class="st15" cx="225.9" cy="395.2" r="20"/>
      <g class="st86">
        <g class="st75">
          <circle class="st42" cx="225.7" cy="411.4" r="15.3" transform="translate(-62.7 41.2) rotate(-9.2)"/>
          <circle class="st65" cx="225.7" cy="388.6" r="5.8"/>
        </g>
      </g>
    </g>
  </g>
  <g id="TEXTS">
    <text class="st85" transform="translate(5.4 196)"><tspan class="st82"><tspan x="0" y="0">LOREM IPSUM </tspan></tspan><tspan class="st71"><tspan x="12.8" y="5.7">ROLE</tspan></tspan></text>
    <text class="st85" transform="translate(5.4 255.7)"><tspan class="st82"><tspan x="0" y="0">LOREM IPSUM </tspan></tspan><tspan class="st71"><tspan x="12.8" y="5.7">ROLE</tspan></tspan></text>
    <text class="st85" transform="translate(70.3 293.1)"><tspan class="st82"><tspan x="0" y="0">LOREM IPSUM </tspan></tspan><tspan class="st71"><tspan x="12.8" y="5.7">ROLE</tspan></tspan></text>
    <text class="st85" transform="translate(70.3 94.1)"><tspan class="st82"><tspan x="0" y="0">LOREM IPSUM </tspan></tspan><tspan class="st71"><tspan x="12.8" y="5.7">ROLE</tspan></tspan></text>
    <text class="st85" transform="translate(413.8 196)"><tspan class="st80"><tspan x="0" y="0">LOREM IPSUM </tspan></tspan><tspan class="st71"><tspan x="12.8" y="5.7">ROLE</tspan></tspan></text>
    <text class="st85" transform="translate(413.8 255.7)"><tspan class="st80"><tspan x="0" y="0">LOREM IPSUM </tspan></tspan><tspan class="st71"><tspan x="12.8" y="5.7">ROLE</tspan></tspan></text>
    <text class="st85" transform="translate(348.5 293.1)"><tspan class="st80"><tspan x="0" y="0">LOREM IPSUM </tspan></tspan><tspan class="st71"><tspan x="12.8" y="5.7">ROLE</tspan></tspan></text>
    <text class="st85" transform="translate(348.5 94.1)"><tspan class="st80"><tspan x="0" y="0">LOREM IPSUM </tspan></tspan><tspan class="st71"><tspan x="12.8" y="5.7">ROLE</tspan></tspan></text>
    <text class="st85" transform="translate(145.8 328.5)"><tspan class="st82"><tspan x="0" y="0">Control de </tspan></tspan><tspan class="st82"><tspan x="4.1" y="5.5">Calidad</tspan></tspan><tspan class="st71"><tspan x="11.4" y="11.3">(4)</tspan></tspan></text>
    <text class="st83" transform="translate(145.3 388.7)"><tspan x="0" y="0">Logistica y</tspan><tspan x="-8.2" y="5.5">Almacenamiento</tspan></text>
    <text class="st79" transform="translate(271 327.6)"><tspan class="st91"><tspan x="0" y="0">Recolección y</tspan></tspan><tspan class="st91" x="-4.2" y="5.2">Clasificación </tspan><tspan class="st70" x="32.5" y="5.2">(30)</tspan></text>
    <text class="st85" transform="translate(266.2 388.7)"><tspan class="st80"><tspan x="0" y="0">Triturado/picado </tspan></tspan><tspan class="st71"><tspan x="17.2" y="5.7">(1zz5)</tspan></tspan></text>
    <text class="st85" transform="translate(141.3 49.9)"><tspan class="st82"><tspan x="0" y="0">LOREM IPSUM </tspan></tspan><tspan class="st71"><tspan x="12.8" y="5.7">ROLE</tspan></tspan></text>
    <text class="st85" transform="translate(141.3 110.1)"><tspan class="st82"><tspan x="0" y="0">LOREM IPSUM </tspan></tspan><tspan class="st71"><tspan x="12.8" y="5.7">ROLE</tspan></tspan></text>
    <text class="st85" transform="translate(270.4 49.9)"><tspan class="st80"><tspan x="0" y="0">LOREM IPSUM </tspan></tspan><tspan class="st71"><tspan x="12.8" y="5.7">ROLE</tspan></tspan></text>
    <text class="st85" transform="translate(270.4 110.1)"><tspan class="st80"><tspan x="0" y="0">LOREM IPSUM </tspan></tspan><tspan class="st71"><tspan x="12.8" y="5.7">ROLE</tspan></tspan></text>
    <text class="st84" transform="translate(203.7 231.7)"><tspan x="0" y="0">DIRECTOR</tspan><tspan x="2.2" y="9.2">GENERAL </tspan></text>
    <text class="st81" transform="translate(207.1 323.4)"><tspan class="st92"><tspan x="0" y="0">Produccion y</tspan></tspan><tspan class="st92"><tspan x="5.5" y="5.5">Logística</tspan></tspan><tspan class="st72"><tspan x="13.7" y="11.1">(71)</tspan></tspan></text>
    <text class="st85" transform="translate(209 425.3)"><tspan class="st82"><tspan x="0" y="0">Extrusion y </tspan></tspan><tspan class="st82"><tspan x="2.2" y="5.5">Moldeado</tspan></tspan><tspan class="st71"><tspan x="12.3" y="11.3">(11)</tspan></tspan></text>
  </g>
</svg>